# xmcd
#
# Track frame offsets:
#	150
#	10003
#	23488
#	35722
#	43796
#	53877
#	62554
#	72332
#	84039
#	93648
#	104270
#	115039
#	124769
#	135814
#	150226
#	162282
#	173988
#	184983
#	195901
#	203991
#	215030
#	224564
#	235682
#	244736
#
# Disc length: 3386 seconds
#
# Revision: 0
# Processed by: cddbd v1.5.2PL0 Copyright (c) Steve Scherf et al.
# Submitted via: EasyCDDAExtractor 15.3.0.1
#
DISCID=410d3818
DTITLE=Floyd Cramer - Countrypolitan Piano Cd 2
DYEAR=1900
DGENRE=
TTITLE0=On The Rebound
TTITLE1=Wonderland By Night
TTITLE2=I Can Just Imagine
TTITLE3=Faded Love
TTITLE4=Let It Be Me
TTITLE5=Two Of A Kind
TTITLE6=Danny Boy
TTITLE7=Corinna Corinna
TTITLE8=Tammy
TTITLE9=First Impression
TTITLE10=San Antonio Rose
TTITLE11=Alma Mater
TTITLE12=Your Last Goodbye
TTITLE13=Unchained Melody
TTITLE14=You Win Again
TTITLE15=Someone Else Not Me
TTITLE16=Lonely Again
TTITLE17=Waltz You Saved For Me
TTITLE18=Hang On
TTITLE19=Out On A Limb
TTITLE20=Rejoice
TTITLE21=Tide And The Sea
TTITLE22=Portuguese Washerwoman
TTITLE23=Are You Sincere
EXTD=
EXTT0=
EXTT1=
EXTT2=
EXTT3=
EXTT4=
EXTT5=
EXTT6=
EXTT7=
EXTT8=
EXTT9=
EXTT10=
EXTT11=
EXTT12=
EXTT13=
EXTT14=
EXTT15=
EXTT16=
EXTT17=
EXTT18=
EXTT19=
EXTT20=
EXTT21=
EXTT22=
EXTT23=
PLAYORDER=
